REM DIRINDEX 1\2,1\3,1\4,1\5
REM DIRNAME cjc044,folder01,folder02,folder03,folder04
TITLE ""
FILE "1800_123.mp3" MP3
  TRACK 01 AUDIO
    TITLE "2:cjc044_3585"
    INDEX 01 00:00:00
  TRACK 02 AUDIO
    TITLE "0:"
    INDEX 01 00:00:68
  TRACK 03 AUDIO
    TITLE "3:cjc044_3586"
    INDEX 01 00:01:54
  TRACK 04 AUDIO
    TITLE "0:"
    INDEX 01 00:03:02
  TRACK 05 AUDIO
    TITLE "4:cjc044_3587"
    INDEX 01 00:03:47
  TRACK 06 AUDIO
    TITLE "0:"
    INDEX 01 00:04:50
  TRACK 07 AUDIO
    TITLE "5:cjc044_3588"
    INDEX 01 00:05:38
  TRACK 08 AUDIO
    TITLE "0:"
    INDEX 01 00:08:21
  TRACK 09 AUDIO
    TITLE "2:cjc044_3589"
    INDEX 01 00:10:04
  TRACK 10 AUDIO
    TITLE "0:"
    INDEX 01 00:11:05
  TRACK 11 AUDIO
    TITLE "3:cjc044_3590"
    INDEX 01 00:11:66
  TRACK 12 AUDIO
    TITLE "0:"
    INDEX 01 00:12:56
  TRACK 13 AUDIO
    TITLE "4:cjc044_3591"
    INDEX 01 00:13:37
  TRACK 14 AUDIO
    TITLE "0:"
    INDEX 01 00:14:41
  TRACK 15 AUDIO
    TITLE "5:cjc044_3592"
    INDEX 01 00:15:28
  TRACK 16 AUDIO
    TITLE "0:"
    INDEX 01 00:18:27
  TRACK 17 AUDIO
    TITLE "2:cjc044_3593"
    INDEX 01 00:20:12
  TRACK 18 AUDIO
    TITLE "0:"
    INDEX 01 00:21:33
  TRACK 19 AUDIO
    TITLE "3:cjc044_3594"
    INDEX 01 00:22:11
  TRACK 20 AUDIO
    TITLE "0:"
    INDEX 01 00:23:18
  TRACK 21 AUDIO
    TITLE "4:cjc044_3595"
    INDEX 01 00:24:04
  TRACK 22 AUDIO
    TITLE "0:"
    INDEX 01 00:25:23
  TRACK 23 AUDIO
    TITLE "5:cjc044_3596"
    INDEX 01 00:26:07
  TRACK 24 AUDIO
    TITLE "0:"
    INDEX 01 00:29:44
  TRACK 25 AUDIO
    TITLE "2:cjc044_3597"
    INDEX 01 00:31:29
  TRACK 26 AUDIO
    TITLE "0:"
    INDEX 01 00:32:23
  TRACK 27 AUDIO
    TITLE "3:cjc044_3598"
    INDEX 01 00:33:09
  TRACK 28 AUDIO
    TITLE "0:"
    INDEX 01 00:34:24
  TRACK 29 AUDIO
    TITLE "4:cjc044_3599"
    INDEX 01 00:35:10
  TRACK 30 AUDIO
    TITLE "0:"
    INDEX 01 00:36:05
  TRACK 31 AUDIO
    TITLE "5:cjc044_3600"
    INDEX 01 00:36:58
  TRACK 32 AUDIO
    TITLE "0:"
    INDEX 01 00:39:23
  TRACK 33 AUDIO
    TITLE "2:cjc044_3601"
    INDEX 01 00:41:04
  TRACK 34 AUDIO
    TITLE "0:"
    INDEX 01 00:42:14
  TRACK 35 AUDIO
    TITLE "3:cjc044_3602"
    INDEX 01 00:42:68
  TRACK 36 AUDIO
    TITLE "0:"
    INDEX 01 00:44:14
  TRACK 37 AUDIO
    TITLE "4:cjc044_3603"
    INDEX 01 00:44:73
  TRACK 38 AUDIO
    TITLE "0:"
    INDEX 01 00:46:06
  TRACK 39 AUDIO
    TITLE "5:cjc044_3604"
    INDEX 01 00:46:64
  TRACK 40 AUDIO
    TITLE "0:"
    INDEX 01 00:50:42
  TRACK 41 AUDIO
    TITLE "2:cjc044_3605"
    INDEX 01 00:52:28
  TRACK 42 AUDIO
    TITLE "0:"
    INDEX 01 00:53:29
  TRACK 43 AUDIO
    TITLE "3:cjc044_3606"
    INDEX 01 00:54:15
  TRACK 44 AUDIO
    TITLE "0:"
    INDEX 01 00:55:06
  TRACK 45 AUDIO
    TITLE "4:cjc044_3607"
    INDEX 01 00:55:65
  TRACK 46 AUDIO
    TITLE "0:"
    INDEX 01 00:56:69
  TRACK 47 AUDIO
    TITLE "5:cjc044_3608"
    INDEX 01 00:57:56
  TRACK 48 AUDIO
    TITLE "0:"
    INDEX 01 01:00:02
  TRACK 49 AUDIO
    TITLE "2:cjc044_3609"
    INDEX 01 01:01:60
  TRACK 50 AUDIO
    TITLE "0:"
    INDEX 01 01:02:57
  TRACK 51 AUDIO
    TITLE "3:cjc044_3610"
    INDEX 01 01:03:47
  TRACK 52 AUDIO
    TITLE "0:"
    INDEX 01 01:04:50
  TRACK 53 AUDIO
    TITLE "4:cjc044_3611"
    INDEX 01 01:05:30
  TRACK 54 AUDIO
    TITLE "0:"
    INDEX 01 01:06:26
  TRACK 55 AUDIO
    TITLE "5:cjc044_3612"
    INDEX 01 01:07:17
  TRACK 56 AUDIO
    TITLE "0:"
    INDEX 01 01:10:20
  TRACK 57 AUDIO
    TITLE "2:cjc044_3613"
    INDEX 01 01:12:09
  TRACK 58 AUDIO
    TITLE "0:"
    INDEX 01 01:13:06
  TRACK 59 AUDIO
    TITLE "3:cjc044_3614"
    INDEX 01 01:14:00
  TRACK 60 AUDIO
    TITLE "0:"
    INDEX 01 01:14:74
  TRACK 61 AUDIO
    TITLE "4:cjc044_3615"
    INDEX 01 01:15:64
  TRACK 62 AUDIO
    TITLE "0:"
    INDEX 01 01:16:60
  TRACK 63 AUDIO
    TITLE "5:cjc044_3616"
    INDEX 01 01:17:55
  TRACK 64 AUDIO
    TITLE "0:"
    INDEX 01 01:20:53
  TRACK 65 AUDIO
    TITLE "2:cjc044_3617"
    INDEX 01 01:22:39
  TRACK 66 AUDIO
    TITLE "0:"
    INDEX 01 01:23:44
  TRACK 67 AUDIO
    TITLE "3:cjc044_3618"
    INDEX 01 01:24:26
  TRACK 68 AUDIO
    TITLE "0:"
    INDEX 01 01:25:17
  TRACK 69 AUDIO
    TITLE "4:cjc044_3619"
    INDEX 01 01:26:07
  TRACK 70 AUDIO
    TITLE "0:"
    INDEX 01 01:27:12
  TRACK 71 AUDIO
    TITLE "5:cjc044_3620"
    INDEX 01 01:27:65
  TRACK 72 AUDIO
    TITLE "0:"
    INDEX 01 01:30:50
  TRACK 73 AUDIO
    TITLE "2:cjc044_3621"
    INDEX 01 01:32:35
  TRACK 74 AUDIO
    TITLE "0:"
    INDEX 01 01:33:48
  TRACK 75 AUDIO
    TITLE "3:cjc044_3622"
    INDEX 01 01:34:34
  TRACK 76 AUDIO
    TITLE "0:"
    INDEX 01 01:35:29
  TRACK 77 AUDIO
    TITLE "4:cjc044_3623"
    INDEX 01 01:36:15
  TRACK 78 AUDIO
    TITLE "0:"
    INDEX 01 01:37:26
  TRACK 79 AUDIO
    TITLE "5:cjc044_3624"
    INDEX 01 01:38:14
  TRACK 80 AUDIO
    TITLE "0:"
    INDEX 01 01:41:50
